<?xml version="1.0" standalone="no"?>
<svg xmlns="http://www.w3.org/2000/svg" viewBox="0 0 140.5625 50.953125" width="140.5625" height="50.953125"><rect fill="#2196f3" width="140.5625" height="50.953125" x="0" y="0"></rect><g fill="white" color="white" transform="translate(12 12) scale(0.6125711)"><svg width="44.0" height="44.0" x="0.0" y="0.0" viewBox="0 0 44 44"><path fill="currentColor" fill-rule="evenodd" d="M21.973 29.756l14.787 8.535-9.168 5.28-5.605-3.224-5.563 3.225-9.182-5.281 14.73-8.535zm0-15.005L44 27.454v6.492l-3.52 2.07-18.506-10.675L3.525 36.016l-3.52-2.042v-6.52L21.973 14.75zM21.97 0l22.026 12.689v10.576L21.984 10.591 0 23.294V12.703L21.97 0z"></path></svg></g><path fill="white" fill-rule="nonzero" d="M5.18 10L5.18 26.58Q4.24 26.46 1.56 26.46L1.56 26.46L0 26.46L0 0.41Q1.25 0.49 2.75 0.49Q4.26 0.49 4.88 0.33L4.88 0.33L11.45 11.48L17.75 0.33Q18.38 0.49 20.14 0.49Q21.89 0.49 23.14 0.41L23.14 0.41L23.14 26.46L21.58 26.46Q18.91 26.46 17.97 26.58L17.97 26.58L17.97 9.08L11.58 20.51L5.18 10ZM51.31 10.76L51.37 10.80Q51.00 11.46 51.00 13.98L51.00 13.98L51.00 20.04Q51.00 22.79 48.14 24.82L48.14 24.82Q45.20 26.95 40.92 26.95L40.92 26.95Q34.98 26.95 31.45 23.22L31.45 23.22Q28.03 19.67 28.03 14.16L28.03 14.16Q28.03 8.30 31.50 4.39L31.50 4.39Q35.39 0 42.21 0L42.21 0Q46.76 0 49.41 1.76L49.41 1.76L49.10 7.52L48.95 7.56Q48.26 6.37 46.25 5.61L46.25 5.61Q44.34 4.88 42.24 4.88Q40.14 4.88 38.56 5.55Q36.99 6.21 35.90 7.44L35.90 7.44Q33.59 9.96 33.59 14.10L33.59 14.10Q33.59 17.71 35.63 19.90L35.63 19.90Q37.66 22.07 40.86 22.07L40.86 22.07Q44.39 22.07 45.63 20.23L45.63 20.23Q46.02 19.65 46.02 18.91L46.02 18.91L46.02 15.66L43.50 15.66Q41.46 15.66 41.29 16.02L41.29 16.02L41.23 16.00L41.05 10.90Q41.60 11.05 45.49 11.05L45.49 11.05L47.79 11.05Q49.94 11.05 51.31 10.76L51.31 10.76ZM72.29 1.93L72.29 1.93L71.91 7.68L71.78 7.71Q70.33 5.55 66.86 4.90L66.86 4.90Q65.76 4.69 64.76 4.69Q63.75 4.69 63.04 4.86Q62.32 5.04 61.82 5.37L61.82 5.37Q60.74 6.07 60.74 7.21L60.74 7.21Q60.74 8.69 61.68 9.43L61.68 9.43Q62.85 10.33 65.57 10.69Q68.28 11.05 69.92 11.68Q71.56 12.30 72.62 13.26L72.62 13.26Q74.61 15.06 74.61 18.34L74.61 18.34Q74.61 22.64 71.37 24.96L71.37 24.96Q68.59 26.95 64.38 26.95L64.38 26.95Q60.98 26.95 57.66 25.66L57.66 25.66Q56.56 25.23 55.74 24.67L55.74 24.67L55.96 18.14L56.04 18.09Q58.46 22.27 63.98 22.27L63.98 22.27Q67.91 22.27 69.18 20.37L69.18 20.37Q69.61 19.73 69.61 18.94Q69.61 18.14 69.36 17.63Q69.10 17.11 68.52 16.74L68.52 16.74Q67.38 16.00 64.71 15.74Q62.03 15.49 60.33 14.79Q58.63 14.08 57.62 13.05L57.62 13.05Q55.78 11.17 55.78 7.81L55.78 7.81Q55.78 4.34 58.22 2.19L58.22 2.19Q60.70 0 64.91 0Q69.12 0 72.29 1.93Z" transform="translate(53.954 12) scale(1)"></path></svg>